<svg height="800px" width="800px" version="1.1" id="Layer_1" xmlns="http://www.w3.org/2000/svg" xmlns:xlink="http://www.w3.org/1999/xlink" viewBox="0 0 251.912 251.912" xml:space="preserve">
    <g>
      <g>
        <g>
          <g>
            <path style="fill:#4EFFBB;" d="M43.018,48.484c-3.908,0-7.077,3.128-7.077,6.984v189.46c0,3.856,3.169,6.984,7.077,6.984      c3.908,0,7.077-3.128,7.077-6.984V55.468C50.092,51.612,46.924,48.484,43.018,48.484z"/>
          </g>
          <g>
            <path style="fill:#4EFFBB;" d="M43.018,21.878c-3.908,0-7.077,3.128-7.077,6.984v8.392c0,3.856,3.169,6.984,7.077,6.984      c3.908,0,7.077-3.128,7.077-6.984v-8.392C50.092,25.006,46.924,21.878,43.018,21.878z"/>
          </g>
          <g>
            <path style="fill:#4EFFBB;" d="M78.399,77.754c-3.908,0-7.077,3.128-7.077,6.984v8.392c0,3.856,3.169,6.984,7.077,6.984      s7.077-3.128,7.077-6.984v-8.392C85.477,80.882,82.308,77.754,78.399,77.754z"/>
          </g>
          <g>
            <path style="fill:#4EFFBB;" d="M113.783,49.818c-3.908,0-7.077,3.128-7.077,6.984v8.392c0,3.856,3.169,6.984,7.077,6.984      c3.908,0,7.077-3.128,7.077-6.984v-8.392C120.858,52.943,117.691,49.818,113.783,49.818z"/>
          </g>
          <g>
            <path style="fill:#4EFFBB;" d="M184.548,18.389c-3.908,0-7.077,3.128-7.077,6.984v8.392c0,3.856,3.169,6.984,7.077,6.984      s7.077-3.128,7.077-6.984v-8.392C191.624,21.514,188.455,18.389,184.548,18.389z"/>
          </g>
          <g>
            <path style="fill:#4EFFBB;" d="M219.928,95.215c-3.908,0-7.077,3.128-7.077,6.984v8.392c0,3.856,3.169,6.984,7.077,6.984      s7.077-3.128,7.077-6.984v-8.392C227.005,98.343,223.837,95.215,219.928,95.215z"/>
          </g>
          <g>
            <path style="fill:#4EFFBB;" d="M149.163,151.088c-3.908,0-7.077,3.128-7.077,6.984v8.392c0,3.856,3.169,6.984,7.077,6.984      c3.908,0,7.077-3.128,7.077-6.984v-8.392C156.24,154.216,153.072,151.088,149.163,151.088z"/>
          </g>
          <g>
            <path style="fill:#4EFFBB;" d="M78.399,102.96c-3.908,0-7.077,3.128-7.077,6.984v134.983c0,3.856,3.169,6.984,7.077,6.984      s7.077-3.128,7.077-6.984V109.944C85.477,106.088,82.308,102.96,78.399,102.96z"/>
          </g>
          <g>
            <path style="fill:#4EFFBB;" d="M113.783,76.763c-3.908,0-7.077,3.128-7.077,6.984v161.181c0,3.856,3.169,6.984,7.077,6.984      c3.908,0,7.077-3.128,7.077-6.984V83.747C120.858,79.888,117.691,76.763,113.783,76.763z"/>
          </g>
          <g>
            <path style="fill:#4EFFBB;" d="M149.163,176.146c-3.908,0-7.077,3.128-7.077,6.984v61.798c0,3.856,3.169,6.984,7.077,6.984      c3.908,0,7.077-3.128,7.077-6.984V183.13C156.24,179.274,153.072,176.146,149.163,176.146z"/>
          </g>
          <g>
            <path style="fill:#4EFFBB;" d="M184.548,44.162c-3.908,0-7.077,3.128-7.077,6.984v193.782c0,3.856,3.169,6.984,7.077,6.984      s7.077-3.128,7.077-6.984V51.146C191.624,47.29,188.455,44.162,184.548,44.162z"/>
          </g>
          <g>
            <path style="fill:#4EFFBB;" d="M219.928,122.341c-3.908,0-7.077,3.128-7.077,6.984v115.603c0,3.856,3.169,6.984,7.077,6.984      s7.077-3.128,7.077-6.984V129.325C227.005,125.469,223.837,122.341,219.928,122.341z"/>
          </g>
        </g>
        <g>
          <g>
            <path style="fill:#222051;" d="M31.986,138.725c3.908,0,7.077-3.169,7.077-7.077V37.079c0-3.856-3.169-6.984-7.077-6.984      s-7.077,3.128-7.077,6.984v94.568C24.909,135.556,28.078,138.725,31.986,138.725L31.986,138.725z"/>
            <path style="fill:#222051;" d="M39.061,181.671v-31.618c0-3.908-3.169-7.077-7.077-7.077l0,0c-3.908,0-7.077,3.169-7.077,7.077      v31.618c0,3.908,3.169,7.077,7.077,7.077l0,0C35.892,188.748,39.061,185.579,39.061,181.671z"/>
            <path style="fill:#222051;" d="M31.986,193.001c-3.908,0-7.077,3.169-7.077,7.077v26.463c0,3.856,3.169,6.984,7.077,6.984      s7.077-3.128,7.077-6.984v-26.463C39.061,196.17,35.892,193.001,31.986,193.001L31.986,193.001z"/>
          </g>
          <g>
            <path style="fill:#222051;" d="M31.986,3.492c-3.908,0-7.077,3.128-7.077,6.984v8.392c0,3.856,3.169,6.984,7.077,6.984      s7.077-3.128,7.077-6.984v-8.392C39.061,6.62,35.892,3.492,31.986,3.492z"/>
          </g>
          <g>
            <path style="fill:#222051;" d="M67.367,59.368c-3.908,0-7.077,3.128-7.077,6.984v8.392c0,3.856,3.169,6.984,7.077,6.984      c3.908,0,7.077-3.128,7.077-6.984v-8.392C74.444,62.493,71.276,59.368,67.367,59.368z"/>
          </g>
          <g>
            <path style="fill:#222051;" d="M102.751,31.429c-3.908,0-7.077,3.128-7.077,6.984v8.392c0,3.856,3.169,6.984,7.077,6.984      s7.077-3.128,7.077-6.984v-8.392C109.825,34.557,106.659,31.429,102.751,31.429z"/>
          </g>
          <g>
            <path style="fill:#222051;" d="M173.514,0c-3.908,0-7.077,3.128-7.077,6.984v8.392c0,3.856,3.169,6.984,7.077,6.984      c3.908,0,7.077-3.128,7.077-6.984V6.984C180.592,3.128,177.423,0,173.514,0z"/>
          </g>
          <g>
            <path style="fill:#222051;" d="M208.895,76.829c-3.908,0-7.077,3.128-7.077,6.984v8.392c0,3.856,3.169,6.984,7.077,6.984      s7.077-3.128,7.077-6.984v-8.392C215.973,79.954,212.804,76.829,208.895,76.829z"/>
          </g>
          <g>
            <path style="fill:#222051;" d="M138.132,132.702c-3.908,0-7.077,3.128-7.077,6.984v8.392c0,3.856,3.169,6.984,7.077,6.984      c3.908,0,7.077-3.128,7.077-6.984v-8.392C145.208,135.83,142.039,132.702,138.132,132.702z"/>
          </g>
          <g>
            <path style="fill:#222051;" d="M67.367,84.571c-3.908,0-7.077,3.128-7.077,6.984v134.983c0,3.856,3.169,6.984,7.077,6.984      c3.908,0,7.077-3.128,7.077-6.984V91.556C74.444,87.699,71.276,84.571,67.367,84.571z"/>
          </g>
          <g>
            <path style="fill:#222051;" d="M102.751,58.374c-3.908,0-7.077,3.128-7.077,6.984v161.181c0,3.856,3.169,6.984,7.077,6.984      s7.077-3.128,7.077-6.984V65.358C109.825,61.502,106.659,58.374,102.751,58.374z"/>
          </g>
          <g>
            <path style="fill:#222051;" d="M138.132,157.76c-3.908,0-7.077,3.128-7.077,6.984v61.798c0,3.856,3.169,6.984,7.077,6.984      c3.908,0,7.077-3.128,7.077-6.984v-61.798C145.208,160.888,142.039,157.76,138.132,157.76z"/>
          </g>
          <g>
            <path style="fill:#222051;" d="M173.514,25.776c-3.908,0-7.077,3.128-7.077,6.984v193.782c0,3.856,3.169,6.984,7.077,6.984      c3.908,0,7.077-3.128,7.077-6.984V32.76C180.592,28.903,177.423,25.776,173.514,25.776z"/>
          </g>
          <g>
            <path style="fill:#222051;" d="M208.895,103.952c-3.908,0-7.077,3.128-7.077,6.984v115.603c0,3.856,3.169,6.984,7.077,6.984      s7.077-3.128,7.077-6.984v-115.6C215.973,107.08,212.804,103.952,208.895,103.952z"/>
          </g>
        </g>
      </g>
    </g>
    </svg>